<svg width="169" height="35" viewBox="0 0 169 35" fill="none" xmlns="http://www.w3.org/2000/svg">
<path d="M11.6053 31.2237H0.921875V4.34143H11.6053C20.481 4.34143 24.9704 9.36286 24.9704 17.7826C24.9704 26.2023 20.4756 31.2237 11.6053 31.2237ZM11.8713 8.38029H6.0573V27.1849H11.8713C17.1967 27.1849 19.8404 24.0146 19.8404 17.7826C19.8404 11.5506 17.1967 8.38029 11.8713 8.38029Z" fill="#1978B1"/>
<path d="M28.0702 31.2237V4.34143H33.2056V31.2237H28.0702Z" fill="#1978B1"/>
<path d="M36.2999 17.7826C36.2999 9.59085 41.0933 3.96143 49.627 3.96143C57.5201 3.96143 61.749 8.53229 61.749 13.3637H57.1401C56.4616 10.454 53.9699 8.15228 49.627 8.15228C44.2256 8.15228 41.4353 11.5886 41.4353 17.7826C41.4353 23.9766 44.231 27.4128 49.627 27.4128C54.6484 27.4128 56.8416 24.5791 57.1401 20.0897H50.3436V16.5774H62.0096V31.2291H58.2693L57.8187 26.6963C56.6461 29.8286 53.9699 31.6037 49.133 31.6037C40.8273 31.6037 36.2944 25.9797 36.2944 17.7826H36.2999Z" fill="#1978B1"/>
<path d="M65.7878 31.2237V4.34143H70.9233V31.2237H65.7878Z" fill="#1978B1"/>
<path d="M128.89 3.96143C120.356 3.96143 115.562 9.58542 115.562 17.7826C115.562 25.9797 120.356 31.6037 128.89 31.6037C137.423 31.6037 142.255 25.9797 142.255 17.7826C142.255 9.58542 137.461 3.96143 128.89 3.96143ZM128.89 27.4074C123.488 27.4074 120.698 23.9711 120.698 17.7771C120.698 11.5831 123.494 8.14685 128.89 8.14685C134.286 8.14685 137.119 11.5831 137.119 17.7771C137.119 23.9711 134.324 27.4074 128.89 27.4074Z" fill="#32B1E4"/>
<path d="M162.72 4.34143L155.055 26.0503L147.39 4.34143H141.875L151.885 31.2237H158.225L168.23 4.34143H162.72Z" fill="#32B1E4"/>
<path d="M97.3224 16.078V21.0126H103.723C102.317 26.034 97.7024 29.72 92.2304 29.72C85.6401 29.72 80.293 24.3783 80.293 17.7825C80.293 11.1868 85.6347 5.84512 92.2304 5.84512C94.4507 5.84512 96.5299 6.45313 98.3104 7.5117V1.77911C96.4213 1.06254 94.3693 0.660828 92.2304 0.660828C82.7738 0.660828 75.1141 8.32597 75.1141 17.7771C75.1141 27.2283 82.7793 34.8934 92.2304 34.8934C98.4787 34.8934 103.934 31.544 106.926 26.5497V34.47H111.86V16.0726H97.317L97.3224 16.078Z" fill="url(#paint0_linear_7501_19628)"/>
<defs>
<linearGradient id="paint0_linear_7501_19628" x1="75.1141" y1="17.7825" x2="111.866" y2="17.7825" gradientUnits="userSpaceOnUse">
<stop stop-color="#0E7FC0"/>
<stop offset="0.67" stop-color="#009DDA"/>
<stop offset="1" stop-color="#32B1E4"/>
</linearGradient>
</defs>
</svg>
